<svg width="78" height="34" viewBox="0 0 78 34" fill="none" xmlns="http://www.w3.org/2000/svg">
<path d="M29.9446 18.3796L6.51172 18.1846L6.44676 25.9909L29.8797 26.1859L29.9446 18.3796Z" fill="#84B740"/>
<path d="M30.0325 7.7282L6.59961 7.5332L6.53459 15.3465L29.9675 15.5415L30.0325 7.7282Z" fill="#259BD6"/>
<path d="M53.324 24.7939L53.2194 24.8139C52.8571 24.8804 52.7246 24.9072 52.4602 24.905C51.848 24.8999 51.127 24.5807 51.1393 23.1058C51.1456 22.3474 51.2792 21.3396 52.4203 21.3491L52.4272 21.3491C52.6219 21.3647 52.8444 21.3874 53.2608 21.5161L53.351 21.5447L53.324 24.7939ZM53.573 17.4413L53.3849 17.4745L53.3622 20.2019L53.1956 20.1518L53.147 20.1375C52.9596 20.0803 52.5293 19.9514 52.1119 19.948C49.8298 19.929 49.3354 21.6504 49.3233 23.0976C49.3068 25.0805 50.4105 26.2308 52.3517 26.2469C53.1727 26.2538 53.7787 26.1753 54.3926 25.9787C54.9577 25.8024 55.1616 25.5467 55.1661 24.9971L55.2313 17.1698C54.6878 17.2627 54.1234 17.3554 53.573 17.4413Z" fill="#27292D"/>
<path d="M60.1108 24.9009L60.0131 24.9279L59.6645 25.0155C59.3368 25.0962 59.0442 25.1425 58.8215 25.1407C58.2858 25.1362 57.968 24.8691 57.9717 24.4169C57.9742 24.1247 58.1105 23.6318 58.9871 23.6391L60.1212 23.6485L60.1108 24.9009ZM59.3516 19.9753C58.6489 19.9694 57.9243 20.0886 57.0244 20.3595L56.4385 20.5285L56.6223 21.8521L57.1944 21.669C57.7944 21.4792 58.5399 21.3601 59.0965 21.3647C59.347 21.3668 60.1123 21.3732 60.1054 22.2011L60.1024 22.5629L59.0379 22.5541C57.0967 22.5379 56.1941 23.1497 56.183 24.4786C56.1736 25.6126 56.9958 26.3014 58.3873 26.3129C58.8187 26.3165 59.4178 26.238 59.9337 26.1171L59.9615 26.1103L59.9893 26.1175L60.163 26.1468C60.7049 26.2487 61.2676 26.3508 61.8164 26.4598L61.8526 22.1183C61.8642 20.7129 61.0214 19.9892 59.3516 19.9753Z" fill="#27292D"/>
<path d="M46.5912 24.7876L46.4936 24.8146L46.145 24.9022C45.8173 24.983 45.5316 25.0293 45.302 25.0274C44.7663 25.0229 44.4484 24.7559 44.4522 24.3036C44.4546 24.0114 44.5909 23.5185 45.4606 23.5258L46.5947 23.5352L46.5843 24.7876L46.5912 24.7876ZM45.839 19.862C45.1293 19.8561 44.4117 19.9754 43.5118 20.2462L42.926 20.4153L43.1098 21.7389L43.6819 21.5558C44.2818 21.3659 45.0273 21.2469 45.5839 21.2515C45.8344 21.2536 46.5997 21.26 46.5928 22.0879L46.5898 22.4497L45.5253 22.4409C43.5842 22.4247 42.6745 23.0364 42.6635 24.3653C42.654 25.4994 43.4763 26.1881 44.8748 26.1997C45.3061 26.2033 45.9052 26.1248 46.4211 26.0039L46.449 25.9971L46.4767 26.0043L46.6435 26.0335C47.1923 26.1355 47.7481 26.2375 48.2968 26.3534L48.333 22.012C48.3517 20.5927 47.5088 19.8759 45.839 19.862Z" fill="#27292D"/>
<path d="M39.3073 19.822C38.4237 19.8147 37.6908 20.1008 37.4184 20.2238L37.3485 20.258L37.2863 20.2088C36.9129 19.9343 36.3644 19.7906 35.599 19.7842C34.9242 19.7786 34.2902 19.8707 33.5997 20.0667C33.0069 20.2427 32.7749 20.5261 32.7704 21.0618L32.7291 26.0225L34.5798 26.0379L34.618 21.4529L34.7087 21.4258C35.0854 21.3037 35.3082 21.2847 35.5239 21.2865C36.0597 21.2909 36.3286 21.5785 36.324 22.1351L36.2913 26.0591L38.1142 26.0743L38.1475 22.0737C38.1495 21.8371 38.1019 21.6976 38.0952 21.6697L38.0336 21.5509L38.1593 21.4963C38.4386 21.3734 38.7453 21.3133 39.0653 21.316C39.434 21.319 39.8712 21.4688 39.8654 22.1645L39.8327 26.0886L41.6486 26.1037L41.6828 21.9988C41.6949 20.5446 40.9215 19.8354 39.3073 19.822Z" fill="#27292D"/>
<path d="M58.8467 13.0647C58.5753 13.0625 58.1233 13.0309 57.7691 12.9583L57.6649 12.9366L57.6872 10.258C57.689 10.0353 57.6484 9.89582 57.6417 9.87489L57.5869 9.76311L57.7056 9.71539C57.7336 9.7017 57.7614 9.69498 57.7963 9.68135L57.8173 9.66761C57.8592 9.65404 57.9011 9.64048 57.9429 9.62691C57.9638 9.62013 57.9778 9.61328 57.9917 9.6134C58.4032 9.50549 58.7787 9.52254 58.9458 9.51001L58.9528 9.51007C60.0869 9.51951 60.2107 10.5294 60.2044 11.2878C60.1851 12.7628 59.452 13.0698 58.8467 13.0647ZM58.8821 7.97176C58.8682 7.97165 58.8473 7.97147 58.8334 7.97136C57.7689 7.9625 56.6741 8.24563 56.2798 8.8129C56.0687 9.08946 55.9476 9.43635 55.9372 9.84679L55.9142 12.6089C55.9122 12.8455 55.8628 12.9355 55.8556 12.9563L55.792 13.0741L52.4316 13.0461L52.4475 11.1259L52.4406 11.1258C52.4157 9.10081 51.2282 7.97765 49.4958 7.96323L49.2941 7.96155L47.8052 7.94916C47.7315 8.44257 47.6729 8.78998 47.5992 9.28339L49.2829 9.2974C50.1666 9.30475 50.6264 10.06 50.6168 11.215L50.6007 13.1492L50.483 13.0856C50.4622 13.0784 50.3165 13.0285 50.0869 13.0266L47.1786 13.0024C47.1199 13.3707 47.0463 13.8502 46.9658 14.3296L55.9062 14.404C56.2129 14.344 56.5682 14.2912 56.8747 14.2451C57.3251 14.4715 58.166 14.5968 58.7434 14.6016C60.6846 14.6177 61.9547 13.3272 61.9714 11.3234C61.9809 9.34044 60.7742 8.02925 58.8821 7.97176Z" fill="#27292D"/>
<path d="M43.146 15.1101L43.2294 15.1108C45.1706 15.1269 46.0804 14.4944 46.0935 12.915C46.103 11.7809 45.2826 10.8696 43.8911 10.858L42.103 10.8431C41.5672 10.8386 41.2497 10.5298 41.254 10.015C41.2569 9.66711 41.3927 9.23685 42.2694 9.24414L46.1795 9.27668C46.2672 8.76948 46.3116 8.44978 46.3924 7.94251L42.3292 7.9087C40.4367 7.89295 39.4769 8.67818 39.4659 10.0001C39.4551 11.3081 40.2773 11.9968 41.6688 12.0084L43.4569 12.0233C43.9926 12.0278 44.3092 12.4548 44.3055 12.9001C44.303 13.1923 44.1658 13.7965 43.2961 13.7893L42.9969 13.7868L37.271 13.7252L36.2274 13.7166C35.3438 13.7092 34.7287 13.2031 34.7384 12.0412L34.7451 11.2411C34.7551 10.0305 35.2414 9.28307 36.2642 9.29158L37.9618 9.30571C38.0427 8.79149 38.0941 8.46489 38.1677 7.97844L36.0526 7.96084L35.8509 7.95916C34.1184 7.94475 32.9121 9.0967 32.8535 11.121L32.8528 11.1975L32.8459 12.0255C32.8708 14.0504 34.0595 15.0275 35.7919 15.0419L35.9937 15.0436L37.4826 15.056L40.5856 15.0888L42.4363 15.1042L43.146 15.1101V15.1101Z" fill="#27292D"/>
</svg>
