<svg width="78" height="34" viewBox="0 0 78 34" fill="none" xmlns="http://www.w3.org/2000/svg">
<path d="M36.5918 7.2832H47.4072V26.7166H36.5918V7.2832Z" fill="#FF5F00"/>
<path d="M37.279 17.0001C37.279 13.0517 39.133 9.5495 41.9827 7.28336C39.8885 5.63532 37.2448 4.63965 34.3607 4.63965C27.5278 4.63965 22 10.1675 22 17.0001C22 23.8327 27.5278 29.3607 34.3605 29.3607C37.2446 29.3607 39.8883 28.365 41.9827 26.7168C39.133 24.4851 37.279 20.9486 37.279 17.0001Z" fill="#EB001B"/>
<path d="M62.0003 17.0001C62.0003 23.8327 56.4725 29.3607 49.6398 29.3607C46.7557 29.3607 44.112 28.365 42.0176 26.7168C44.9017 24.4508 46.7214 20.9486 46.7214 17.0001C46.7214 13.0517 44.8673 9.5495 42.0176 7.28336C44.1118 5.63532 46.7557 4.63965 49.6398 4.63965C56.4725 4.63965 62.0003 10.2019 62.0003 17.0001Z" fill="#F79E1B"/>
</svg>
