<svg width="78" height="34" viewBox="0 0 78 34" fill="none" xmlns="http://www.w3.org/2000/svg">
<path d="M18.9093 8.96681C18.2914 9.69796 17.3026 10.2749 16.3139 10.1924C16.1903 9.20377 16.6743 8.15318 17.2408 7.50431C17.8587 6.75257 18.9402 6.21697 19.8156 6.17578C19.9186 7.20567 19.5169 8.21497 18.9093 8.96681ZM19.8053 10.3881C18.3737 10.3057 17.1481 11.2017 16.4684 11.2017C15.7784 11.2017 14.7381 10.4293 13.6053 10.4499C12.1326 10.4705 10.7627 11.3046 10.0109 12.6333C8.466 15.2904 9.60927 19.2247 11.1026 21.3875C11.8338 22.4586 12.7092 23.6326 13.8627 23.5914C14.9545 23.5503 15.387 22.8809 16.7053 22.8809C18.0339 22.8809 18.415 23.5914 19.5684 23.5709C20.7631 23.5503 21.515 22.4999 22.2462 21.4287C23.0803 20.2134 23.4203 19.029 23.4409 18.9672C23.4203 18.9466 21.1339 18.0713 21.1133 15.4346C21.0927 13.2307 22.9157 12.1802 22.9981 12.1184C21.9681 10.5941 20.3615 10.4293 19.8053 10.3881ZM28.0755 7.40133V23.4577H30.5678V17.9683H34.018C37.1695 17.9683 39.3838 15.8055 39.3838 12.6746C39.3838 9.5437 37.2107 7.40143 34.1004 7.40143H28.0754L28.0755 7.40133ZM30.5678 9.50241H33.4412C35.6041 9.50241 36.8399 10.6559 36.8399 12.6848C36.8399 14.7136 35.6041 15.8775 33.4309 15.8775H30.5678V9.50241ZM43.936 23.5811C45.5015 23.5811 46.9536 22.7882 47.6128 21.5317H47.6642V23.4576H49.9713V15.4655C49.9713 13.1483 48.1174 11.6549 45.2645 11.6549C42.6177 11.6549 40.6609 13.1689 40.5888 15.2492H42.834C43.0194 14.2605 43.9359 13.6117 45.1924 13.6117C46.7167 13.6117 47.5716 14.3223 47.5716 15.6304V16.516L44.4612 16.7013C41.5672 16.8764 40.0018 18.0609 40.0018 20.1208C40.0018 22.2011 41.6187 23.5811 43.936 23.5811ZM44.6054 21.6758C43.2769 21.6758 42.4323 21.0374 42.4323 20.0589C42.4323 19.0497 43.2459 18.4626 44.8011 18.3699L47.5716 18.1948V19.1011C47.5716 20.6048 46.2945 21.6758 44.6055 21.6758H44.6054ZM53.0506 27.8244C55.4813 27.8244 56.6244 26.8976 57.6234 24.0858L62.0005 11.8093H59.4669L56.5317 21.2947H56.4803L53.5451 11.8093H50.9394L55.1619 23.4988L54.9354 24.2094C54.5543 25.4144 53.9364 25.8779 52.8344 25.8779C52.6387 25.8779 52.2577 25.8573 52.1031 25.8367V27.7626C52.2473 27.8038 52.8652 27.8244 53.0506 27.8244Z" fill="black"/>
</svg>
