<svg width="78" height="34" viewBox="0 0 78 34" fill="none" xmlns="http://www.w3.org/2000/svg">
<path d="M58.7906 23.7979L58.3865 21.7683H53.8509L53.1293 23.7835L49.494 23.7907C51.8303 18.1745 53.5659 14.016 54.6971 11.3116C54.9929 10.6044 55.5179 10.2436 56.2919 10.249C56.8836 10.2544 57.8489 10.2544 59.1893 10.2508L62.0001 23.7925L58.7906 23.7979ZM54.8721 18.9881H57.7947L56.7032 13.9005L54.8721 18.9881ZM31.4383 10.2472L35.0934 10.2508L29.4429 23.7997L25.7427 23.7961C24.8122 20.2173 23.8933 16.6355 22.986 13.0508C22.8056 12.3363 22.4483 11.8366 21.761 11.6003C20.7458 11.26 19.7258 10.9346 18.7012 10.6242L18.7012 10.2508H24.5411C25.5514 10.2508 26.1414 10.7397 26.3308 11.7428C26.522 12.7477 27.0019 15.3077 27.7741 19.4175L31.4383 10.2472ZM40.1161 10.2508L37.2277 23.7979L33.7476 23.7925L36.6342 10.2472L40.1161 10.2508ZM47.1702 10C48.2112 10 49.5228 10.3247 50.2769 10.6242L49.6672 13.4314C48.9852 13.1572 47.863 12.7874 46.9195 12.8C45.5483 12.8235 44.7004 13.399 44.7004 13.951C44.7004 14.8495 46.1726 15.3023 47.688 16.2838C49.4164 17.4023 49.6455 18.4072 49.6239 19.5005C49.6004 21.7647 47.688 24 43.654 24C41.8138 23.9729 41.1499 23.8196 39.6489 23.2856L40.2839 20.3557C41.812 20.9943 42.4597 21.1982 43.7659 21.1982C44.962 21.1982 45.9885 20.7147 45.9976 19.8722C46.0048 19.2732 45.6367 18.9755 44.2945 18.2358C42.9522 17.4943 41.0687 16.4696 41.094 14.4075C41.1246 11.7698 43.6233 10 47.1702 10Z" fill="#2790C3"/>
</svg>
